<svg  xmlns="http://www.w3.org/2000/svg" width="437" height="388">
<path d="M0 0 C3 1 3 1 4.140625 2.86547852 C4.50671875 3.69490967 4.8728125 4.52434082 5.25 5.37890625 C5.90125854 6.82559692 5.90125854 6.82559692 6.56567383 8.30151367 C7.03900146 9.37763916 7.5123291 10.45376465 8 11.5625 C9.06383182 13.9256865 10.13002216 16.28768477 11.19921875 18.6484375 C11.48971603 19.29219833 11.78021332 19.93595917 12.07951355 20.59922791 C16.19458894 29.68908966 20.51705723 38.68192745 24.8125 47.6875 C27.52090363 53.36986221 30.226168 59.053683 32.92486572 64.74066162 C33.98810785 66.97500928 35.05887214 69.20563778 36.13037109 71.43603516 C36.77857934 72.79707719 37.42654249 74.15823598 38.07421875 75.51953125 C38.92439575 77.29420776 38.92439575 77.29420776 39.79174805 79.10473633 C41 82 41 82 41 85 C36.38 85 31.76 85 27 85 C25.35391711 81.87513122 23.7081225 78.75011122 22.0625 75.625 C21.59392578 74.73554688 21.12535156 73.84609375 20.64257812 72.9296875 C19.9706543 71.65351563 19.9706543 71.65351563 19.28515625 70.3515625 C18.66459351 69.17327881 18.66459351 69.17327881 18.03149414 67.97119141 C17.34211376 66.65378141 16.66495329 65.32990658 16 64 C5.77 63.67 -4.46 63.34 -15 63 C-13.77925781 65.49046875 -12.55851562 67.9809375 -11.30078125 70.546875 C-3.55186892 86.37635394 4.18577434 102.20957094 11.625 118.1875 C12.43070435 119.91081543 12.43070435 119.91081543 13.25268555 121.66894531 C13.73906494 122.72049805 14.22544434 123.77205078 14.7265625 124.85546875 C15.14502441 125.75934326 15.56348633 126.66321777 15.99462891 127.59448242 C17 130 17 130 18 134 C13.05 134 8.1 134 3 134 C1.51801798 131.23063966 0.03931683 128.45961293 -1.4375 125.6875 C-1.85837891 124.90181641 -2.27925781 124.11613281 -2.71289062 123.30664062 C-3.11572266 122.54931641 -3.51855469 121.79199219 -3.93359375 121.01171875 C-4.30540771 120.31522217 -4.67722168 119.61872559 -5.06030273 118.90112305 C-6 117 -6 117 -7 114 C-21.85 113.67 -36.7 113.34 -52 113 C-51 108 -51 108 -46 98 C-36.43 97.67 -26.86 97.34 -17 97 C-18.09183594 95.02 -19.18367188 93.04 -20.30859375 91 C-32.10602436 68.84165247 -32.10602436 68.84165247 -30.40625 61.515625 C-28.85920327 57.54525945 -26.65887516 54.31012819 -24 51 C-23.67 50.34 -23.34 49.68 -23 49 C-13.1 49 -3.2 49 7 49 C5.97777344 46.90398437 4.95554688 44.80796875 3.90234375 42.6484375 C2.91898449 40.6048121 1.94106247 38.55866919 0.96362305 36.51220703 C0.2833916 35.09542233 -0.40242774 33.68130604 -1.09399414 32.27001953 C-2.08934486 30.23632238 -3.06394723 28.19375265 -4.03515625 26.1484375 C-4.34655045 25.52319183 -4.65794464 24.89794617 -4.97877502 24.25375366 C-6.93077499 20.07517868 -7.23908206 17.43378605 -6 13 C-5.04598952 10.67971967 -4.02236449 8.38705788 -2.9375 6.125 C-2.38964844 4.97257812 -1.84179688 3.82015625 -1.27734375 2.6328125 C-0.85582031 1.76398438 -0.43429688 0.89515625 0 0 Z " fill="#2D2A2B" transform="translate(236,80)"/>
<path d="M0 0 C0.70439209 0.00829834 1.40878418 0.01659668 2.13452148 0.02514648 C9.97047605 0.28020304 14.2313023 2.5727236 19.875 7.75 C26.15648122 14.5907912 26.67554556 20.55504265 26.4765625 29.69921875 C25.71006517 36.61938805 23.0742505 41.28539482 18.375 46.3125 C10.0529024 51.65120412 2.55017459 53.74025419 -7.25 52.03515625 C-14.54299022 50.09795572 -20.4376866 45.49633681 -24.390625 39.078125 C-27.93673237 31.23673265 -28.19710409 23.31847633 -25.4375 15.1875 C-22.52953697 8.72421821 -17.89151482 4.94277549 -11.671875 1.7734375 C-7.67719677 0.34437897 -4.19080473 -0.06373275 0 0 Z M-11.375 16.9375 C-13.56908757 21.85225615 -13.71037319 26.1377981 -12.9375 31.4375 C-11.16446952 35.25633489 -9.63882149 36.93189614 -6.25 39.375 C-1.86529812 40.78141381 1.65088957 40.78051793 6.0625 39.4375 C9.26222296 36.91856916 11.82930802 34.36129266 13.0625 30.4375 C13.61233753 23.61951468 12.46338986 19.72760833 8.375 14.125 C1.67019375 9.23230355 -5.88594933 11.30770444 -11.375 16.9375 Z " fill="#343233" transform="translate(324.9375,235.5625)"/>
<path d="M0 0 C6.1875 -0.0928125 6.1875 -0.0928125 12.5 -0.1875 C13.78455078 -0.21481201 15.06910156 -0.24212402 16.39257812 -0.27026367 C24.40561132 -0.32822976 30.49258676 0.10257167 36.875 5.375 C40.72360908 10.12916416 41.53565174 13.8935702 41 20 C39.11327126 25.24091316 36.40227139 27.81537814 32 31 C31.34 31 30.68 31 30 31 C30.33322266 31.5347998 30.66644531 32.06959961 31.00976562 32.62060547 C32.51112495 35.03590415 34.00563105 37.45537067 35.5 39.875 C36.02464844 40.71675781 36.54929687 41.55851562 37.08984375 42.42578125 C37.58613281 43.23144531 38.08242188 44.03710938 38.59375 44.8671875 C39.05458984 45.61081543 39.51542969 46.35444336 39.99023438 47.12060547 C41 49 41 49 41 51 C35.97395808 52.02531255 30.8652926 52.9912904 26 51 C21.34872498 46.50175395 18.28224117 40.00020461 16 34 C16 33.34 16 32.68 16 32 C15.01 32 14.02 32 13 32 C13 38.27 13 44.54 13 51 C8.71 51 4.42 51 0 51 C0 34.17 0 17.34 0 0 Z M13 11 C12.97312721 12.81242052 12.95366285 14.62495233 12.9375 16.4375 C12.92589844 17.44683594 12.91429687 18.45617187 12.90234375 19.49609375 C12.71387324 21.94021067 12.71387324 21.94021067 14 23 C18.07164742 23.42946383 21.78555625 23.53317043 25.5625 21.875 C27.25060967 19.98864997 27.25060967 19.98864997 27.4375 17 C27.24038805 14.07683875 27.24038805 14.07683875 25.828125 12.32421875 C23.26733964 10.46929089 21.43586006 10.70226376 18.3125 10.8125 C17.31863281 10.83957031 16.32476562 10.86664063 15.30078125 10.89453125 C14.16189453 10.94673828 14.16189453 10.94673828 13 11 Z " fill="#2F2D2E" transform="translate(252,236)"/>
<path d="M0 0 C5.09647914 3.95547635 8.10608489 8.23292022 9.09375 14.625 C6.69600255 14.76072155 4.30599755 14.85936868 1.90625 14.9375 C0.89594727 15.0003418 0.89594727 15.0003418 -0.13476562 15.06445312 C-4.1280596 15.16185054 -5.60882531 14.90071486 -8.58203125 12.14453125 C-9.34902344 11.31308594 -10.11601562 10.48164063 -10.90625 9.625 C-14.33028553 8.71549056 -17.44724333 8.89798382 -20.90625 9.625 C-23.73049288 11.81522918 -25.32133603 13.45517207 -26.90625 16.625 C-27.62198624 24.48346582 -27.62198624 24.48346582 -25.15625 31.75 C-22.00272919 34.37793401 -20.12873101 35.46554596 -16.03125 36 C-12.08453136 35.52639376 -9.99629813 34.06829387 -6.90625 31.625 C-6.41125 30.635 -6.41125 30.635 -5.90625 29.625 C-0.95625 29.625 3.99375 29.625 9.09375 29.625 C7.78874643 36.15001786 5.15093252 40.39578749 -0.1484375 44.5234375 C-6.87156047 48.73659456 -14.58069369 49.84378403 -22.26171875 48.0859375 C-27.03841797 46.62972434 -30.99360573 44.73505058 -34.90625 41.625 C-34.90625 40.965 -34.90625 40.305 -34.90625 39.625 C-35.56625 39.625 -36.22625 39.625 -36.90625 39.625 C-37.5571759 38.37764433 -38.20176669 37.12698168 -38.84375 35.875 C-39.20339844 35.17890625 -39.56304687 34.4828125 -39.93359375 33.765625 C-43.12351901 26.74522724 -42.90773335 18.58191678 -40.40625 11.375 C-37.49097412 4.89546456 -32.71226139 1.4002317 -26.84375 -2.3125 C-18.32093478 -5.42059087 -7.75812923 -4.55143582 0 0 Z " fill="#343333" transform="translate(192.90625,239.375)"/>
<path d="M0 0 C1.65 0.33 3.3 0.66 5 1 C6.125 4.75 6.125 4.75 5 7 C4.01 7 3.02 7 2 7 C1.92007813 7.64066406 1.84015625 8.28132813 1.7578125 8.94140625 C0.69619973 13.22616295 -1.20060116 16.97802772 -3.125 20.9375 C-3.53024902 21.7828833 -3.93549805 22.6282666 -4.35302734 23.49926758 C-6.72233511 28.42390315 -9.15415103 33.31318884 -11.625 38.1875 C-14.438934 43.75674438 -16.9943218 49.40229335 -19.42822266 55.14526367 C-21.34657927 59.63961537 -23.47168172 64.00088492 -25.67480469 68.36230469 C-27.94477517 72.88049944 -30.12875372 77.43965207 -32.3125 82 C-32.79178955 83.00039307 -33.2710791 84.00078613 -33.76489258 85.03149414 C-36.67030009 91.12620149 -39.48069558 97.25227127 -42.1875 103.4375 C-45.56087331 111.14193794 -49.23816414 118.66047618 -53.05957031 126.15136719 C-54.55594945 129.09284767 -56.02686454 132.04681294 -57.5 135 C-58.33333333 136.66666667 -59.16666667 138.33333333 -60 140 C-61.32 139.67 -62.64 139.34 -64 139 C-61.34570637 132.12050427 -58.40174222 125.44721908 -55.1875 118.8125 C-54.36777951 117.11101899 -53.54878798 115.40918663 -52.73046875 113.70703125 C-52.29613525 112.80412354 -51.86180176 111.90121582 -51.41430664 110.97094727 C-50.13176351 108.27678753 -48.87013063 105.57371387 -47.61572266 102.86636353 C-43.50678826 94.00230808 -39.22516528 85.22725008 -34.92224121 76.45605469 C-28.06406385 62.46713573 -21.33618541 48.44828345 -14.99804688 34.21484375 C-12.86203276 29.47464805 -10.61357874 24.78615545 -8.375 20.09375 C-7.04632447 17.10423006 -5.97736746 14.12005767 -5 11 C-5.495 10.505 -5.495 10.505 -6 10 C-6.1381311 11.0051062 -6.1381311 11.0051062 -6.27905273 12.03051758 C-7.19227698 15.79196238 -8.81434249 19.06988813 -10.53515625 22.51171875 C-10.88960815 23.23315063 -11.24406006 23.95458252 -11.60925293 24.69787598 C-12.36514095 26.23566017 -13.12348039 27.77224141 -13.88406372 29.30770874 C-15.85217297 33.28220382 -17.80177933 37.2657264 -19.75 41.25 C-20.12870743 42.023936 -20.50741486 42.79787201 -20.89759827 43.59526062 C-23.57090168 49.07574832 -26.13965749 54.59114797 -28.5625 60.1875 C-31.20814875 66.29685995 -34.07039167 72.25543027 -37.07910156 78.1940918 C-41.50795859 86.94465609 -45.57159391 95.86153525 -49.63671875 104.78515625 C-62.57797114 133.17306611 -62.57797114 133.17306611 -68 142 C-68.99 141.67 -69.98 141.34 -71 141 C-69.03702659 134.59601387 -66.56109667 128.63923278 -63.625 122.625 C-62.8157213 120.94434007 -62.00712222 119.2633527 -61.19921875 117.58203125 C-60.62373291 116.38827881 -60.62373291 116.38827881 -60.03662109 115.17041016 C-58.79439497 112.56951749 -57.60846289 109.94616738 -56.4375 107.3125 C-54.45110638 102.89601658 -52.30452697 98.57317273 -50.125 94.25 C-47.26805825 88.58262486 -44.51118459 82.88157557 -41.84716797 77.12011719 C-39.19414456 71.39123099 -36.47719156 65.6939112 -33.75 60 C-33.28537354 59.02957764 -32.82074707 58.05915527 -32.34204102 57.05932617 C-30.39972904 53.00434729 -28.45591294 48.95009268 -26.51074219 44.89648438 C-25.52398938 42.84004747 -24.53765708 40.78340874 -23.55175781 38.7265625 C-22.63281543 36.80942603 -21.71296449 34.89272465 -20.79199219 32.9765625 C-18.59391746 28.38985752 -16.42044011 23.79207638 -14.28515625 19.17578125 C-13.68779663 17.88667847 -13.68779663 17.88667847 -13.07836914 16.5715332 C-11.63177587 13.12191426 -10.61860567 9.61121805 -9.67578125 5.99609375 C-9 4 -9 4 -7 2 C-3.46428571 2.53571429 -3.46428571 2.53571429 -2 4 C-1.34 2.68 -0.68 1.36 0 0 Z " fill="#4B6CA0" transform="translate(230,74)"/>
<path d="M0 0 C10.56 0 21.12 0 32 0 C32 3.63 32 7.26 32 11 C25.73 11 19.46 11 13 11 C13 13.97 13 16.94 13 20 C18.61 20 24.22 20 30 20 C30 23.3 30 26.6 30 30 C24.72 30.33 19.44 30.66 14 31 C14 33.97 14 36.94 14 40 C19.94 40.33 25.88 40.66 32 41 C32 44.3 32 47.6 32 51 C27.60364953 51.16726689 23.20712239 51.32786093 18.81030273 51.48217773 C17.31349062 51.53566434 15.81674337 51.5909987 14.32006836 51.64819336 C12.17315668 51.72991956 10.02610207 51.8050746 7.87890625 51.87890625 C6.5854126 51.9260376 5.29191895 51.97316895 3.95922852 52.02172852 C1 52 1 52 0 51 C-0.09333705 49.40389018 -0.11745372 47.80366572 -0.11352539 46.20483398 C-0.11344986 45.18385117 -0.11337433 44.16286835 -0.11329651 43.11094666 C-0.10813522 42.0005452 -0.10297394 40.89014374 -0.09765625 39.74609375 C-0.0962413 38.61551041 -0.09482635 37.48492706 -0.09336853 36.32008362 C-0.08775019 32.69252935 -0.07519458 29.06503576 -0.0625 25.4375 C-0.05748736 22.98502693 -0.05292405 20.5325529 -0.04882812 18.08007812 C-0.0386237 12.05334296 -0.01905186 6.02673978 0 0 Z " fill="#302E2F" transform="translate(113,236)"/>
<path d="M0 0 C10.56 0 21.12 0 32 0 C32 3.63 32 7.26 32 11 C25.73 11 19.46 11 13 11 C13 13.97 13 16.94 13 20 C18.61 20 24.22 20 30 20 C30 23.3 30 26.6 30 30 C24.72 30.33 19.44 30.66 14 31 C13.67 34.3 13.34 37.6 13 41 C19.27 41 25.54 41 32 41 C32 44.3 32 47.6 32 51 C21.44 51 10.88 51 0 51 C0 34.17 0 17.34 0 0 Z " fill="#312F30" transform="translate(39,236)"/>
<path d="M0 0 C1.51815699 0.00015911 3.0363194 0.00585313 4.55444336 0.01586914 C5.35208603 0.01728409 6.1497287 0.01869904 6.97154236 0.02015686 C9.52916146 0.02577223 12.08669429 0.03832727 14.64428711 0.05102539 C16.37410356 0.05603841 18.10392137 0.06060166 19.83374023 0.06469727 C24.08312264 0.07574664 28.33244023 0.09302153 32.58178711 0.11352539 C32.94124134 6.74419857 33.18670762 11.67228067 29.20678711 17.30102539 C28.58030273 18.22270508 27.95381836 19.14438477 27.30834961 20.09399414 C26.73858398 20.76043945 26.16881836 21.42688477 25.58178711 22.11352539 C24.92178711 22.11352539 24.26178711 22.11352539 23.58178711 22.11352539 C23.35749023 22.78770508 23.13319336 23.46188477 22.90209961 24.15649414 C21.20554269 27.95617931 18.91287952 31.08512706 16.45678711 34.42602539 C14.84803711 36.63290039 13.23928711 38.83977539 11.58178711 41.11352539 C21.97678711 40.61852539 21.97678711 40.61852539 32.58178711 40.11352539 C32.58178711 43.74352539 32.58178711 47.37352539 32.58178711 51.11352539 C20.37178711 51.11352539 8.16178711 51.11352539 -4.41821289 51.11352539 C-4.41821289 39.86711547 -4.41821289 39.86711547 -1.85571289 36.62133789 C-1.03623169 35.54215088 -1.03623169 35.54215088 -0.20019531 34.44116211 C0.38785889 33.71429199 0.97591309 32.98742187 1.58178711 32.23852539 C2.77491626 30.68255334 3.9663204 29.12525704 5.15600586 27.56665039 C5.74043457 26.81448242 6.32486328 26.06231445 6.92700195 25.28735352 C10.39545892 20.73097393 13.4490192 15.90481749 16.58178711 11.11352539 C9.65178711 11.11352539 2.72178711 11.11352539 -4.41821289 11.11352539 C-4.41821289 0.1467373 -4.41821289 0.1467373 0 0 Z " fill="#2E2C2D" transform="translate(360.418212890625,235.886474609375)"/>
<path d="M0 0 C13.53 0 27.06 0 41 0 C41 3.63 41 7.26 41 11 C34.565 11.495 34.565 11.495 28 12 C28 24.87 28 37.74 28 51 C23.38 51 18.76 51 14 51 C14 37.8 14 24.6 14 11 C9.38 11 4.76 11 0 11 C0 7.37 0 3.74 0 0 Z " fill="#323030" transform="translate(206,236)"/>
<path d="M0 0 C4.29 0 8.58 0 13 0 C13.33 13.2 13.66 26.4 14 40 C19.28 40.33 24.56 40.66 30 41 C30 44.3 30 47.6 30 51 C20.1 51 10.2 51 0 51 C0 34.17 0 17.34 0 0 Z " fill="#2C2A2B" transform="translate(78,236)"/>
<path d="M0 0 C4.87452354 0.45344405 7.56374937 1.47087773 11 5 C13.62528873 9.79794146 14.5943773 13.55154139 14 19 C12.11327126 24.24091316 9.40227139 26.81537814 5 30 C4.34 30 3.68 30 3 30 C3.33322266 30.5347998 3.66644531 31.06959961 4.00976562 31.62060547 C5.51112495 34.03590415 7.00563105 36.45537067 8.5 38.875 C9.02464844 39.71675781 9.54929687 40.55851562 10.08984375 41.42578125 C10.58613281 42.23144531 11.08242188 43.03710938 11.59375 43.8671875 C12.05458984 44.61081543 12.51542969 45.35444336 12.99023438 46.12060547 C14 48 14 48 14 50 C8.89644214 51.25497324 3.90255259 52.24992982 -1 50 C-6.26936949 44.65767001 -10.44114603 37.03851435 -13 30 C-12 28 -11 26 -10 24 C-11.32 23.67 -12.64 23.34 -14 23 C-13.67 22.34 -13.34 21.68 -13 21 C-12.38511719 21.02320313 -11.77023437 21.04640625 -11.13671875 21.0703125 C-9.92435547 21.09738281 -9.92435547 21.09738281 -8.6875 21.125 C-7.88699219 21.14820313 -7.08648437 21.17140625 -6.26171875 21.1953125 C-3.71611424 21.15817322 -3.71611424 21.15817322 -1 19 C-0.56867485 14.94554358 -0.69980639 13.45029042 -3 10 C-2.625 7.8125 -2.625 7.8125 -2 6 C-2.66 5.67 -3.32 5.34 -4 5 C-2.02 5 -0.04 5 2 5 C2 4.34 2 3.68 2 3 C1.34 2.67 0.68 2.34 0 2 C0 1.34 0 0.68 0 0 Z " fill="#343233" transform="translate(279,237)"/>
<path d="M0 0 C2.475 0.495 2.475 0.495 5 1 C4.34 1.33 3.68 1.66 3 2 C2.8666626 2.6906958 2.7333252 3.3813916 2.59594727 4.09301758 C1.820718 7.87452307 0.17778671 11.08563066 -1.53515625 14.51171875 C-1.88960815 15.23315063 -2.24406006 15.95458252 -2.60925293 16.69787598 C-3.36514095 18.23566017 -4.12348039 19.77224141 -4.88406372 21.30770874 C-6.85217297 25.28220382 -8.80177933 29.2657264 -10.75 33.25 C-11.12870743 34.023936 -11.50741486 34.79787201 -11.89759827 35.59526062 C-14.57090168 41.07574832 -17.13965749 46.59114797 -19.5625 52.1875 C-22.20814875 58.29685995 -25.07039167 64.25543027 -28.07910156 70.1940918 C-32.50795859 78.94465609 -36.57159391 87.86153525 -40.63671875 96.78515625 C-53.57797114 125.17306611 -53.57797114 125.17306611 -59 134 C-59.99 133.67 -60.98 133.34 -62 133 C-60.03702659 126.59601387 -57.56109667 120.63923278 -54.625 114.625 C-53.8157213 112.94434007 -53.00712222 111.2633527 -52.19921875 109.58203125 C-51.62373291 108.38827881 -51.62373291 108.38827881 -51.03662109 107.17041016 C-49.79439497 104.56951749 -48.60846289 101.94616738 -47.4375 99.3125 C-45.45110638 94.89601658 -43.30452697 90.57317273 -41.125 86.25 C-38.26805825 80.58262486 -35.51118459 74.88157557 -32.84716797 69.12011719 C-30.19414456 63.39123099 -27.47719156 57.6939112 -24.75 52 C-24.28537354 51.02957764 -23.82074707 50.05915527 -23.34204102 49.05932617 C-21.39972904 45.00434729 -19.45591294 40.95009268 -17.51074219 36.89648438 C-16.52398938 34.84004747 -15.53765708 32.78340874 -14.55175781 30.7265625 C-13.63281543 28.80942603 -12.71296449 26.89272465 -11.79199219 24.9765625 C-9.15645002 19.4769977 -6.59460688 13.94915542 -4.09057617 8.38842773 C-2.79607751 5.55339743 -1.42351176 2.77210186 0 0 Z " fill="#56BAD8" transform="translate(221,82)"/>
<path d="M0 0 C1.51815699 0.00015911 3.0363194 0.00585313 4.55444336 0.01586914 C5.35208603 0.01728409 6.1497287 0.01869904 6.97154236 0.02015686 C9.52916146 0.02577223 12.08669429 0.03832727 14.64428711 0.05102539 C16.37410356 0.05603841 18.10392137 0.06060166 19.83374023 0.06469727 C24.08312264 0.07574664 28.33244023 0.09302153 32.58178711 0.11352539 C32.94124134 6.74419857 33.18670762 11.67228067 29.20678711 17.30102539 C28.58030273 18.22270508 27.95381836 19.14438477 27.30834961 20.09399414 C26.73858398 20.76043945 26.16881836 21.42688477 25.58178711 22.11352539 C24.92178711 22.11352539 24.26178711 22.11352539 23.58178711 22.11352539 C23.25178711 23.10352539 22.92178711 24.09352539 22.58178711 25.11352539 C20.27178711 24.78352539 17.96178711 24.45352539 15.58178711 24.11352539 C15.91178711 23.12352539 16.24178711 22.13352539 16.58178711 21.11352539 C15.92178711 21.11352539 15.26178711 21.11352539 14.58178711 21.11352539 C13.58178711 18.11352539 13.58178711 18.11352539 16.58178711 11.11352539 C9.65178711 11.11352539 2.72178711 11.11352539 -4.41821289 11.11352539 C-4.41821289 0.1467373 -4.41821289 0.1467373 0 0 Z " fill="#353334" transform="translate(360.418212890625,235.886474609375)"/>
<path d="M0 0 C1.67542976 0.28604898 3.34385343 0.61781233 5 1 C5.46291931 5.69906772 3.99662825 8.33055492 1.6875 12.375 C-6.71268134 27.50862987 -13.73309891 43.37406751 -20.94946289 59.09521484 C-27.67443635 73.70173343 -34.61899813 88.20525975 -41.53646851 102.72129822 C-43.51167794 106.86749567 -45.48188626 111.01597233 -47.44384766 115.16845703 C-47.84424759 116.01561783 -48.24464752 116.86277863 -48.65718079 117.73561096 C-49.41300224 119.33561219 -50.16809701 120.93595701 -50.92228699 122.53672791 C-53.2161406 127.39216798 -55.58311094 132.20455289 -58 137 C-58.99 137 -59.98 137 -61 137 C-60.45025964 132.56280995 -59.3473545 129.31013543 -57.25 125.375 C-53.65554901 118.45267214 -50.38122129 111.39924784 -47.125 104.3125 C-41.9570719 93.09429597 -36.61141292 81.97150825 -31.1875 70.875 C-25.85071653 59.95270447 -20.64606328 49.00751492 -15.81201172 37.8515625 C-14.39919357 34.63003129 -12.92289238 31.43858783 -11.4375 28.25 C-11.15688721 27.64518799 -10.87627441 27.04037598 -10.5871582 26.41723633 C-9.12580997 23.29735708 -7.6081163 20.2190804 -6.0078125 17.16796875 C-5.51970093 16.22872559 -5.51970093 16.22872559 -5.02172852 15.27050781 C-4.12046804 13.54827222 -3.20334112 11.83436618 -2.28515625 10.12109375 C-0.9209558 6.80803553 -0.828487 4.53940467 -1 1 C-0.67 0.67 -0.34 0.34 0 0 Z " fill="#A1D4E7" transform="translate(214,78)"/>
<path d="M0 0 C2.99693138 0.99897713 4.02709413 1.65130253 6 4 C6 4.66 6 5.32 6 6 C6.99 6 7.98 6 9 6 C10.04976964 9.14930893 10.10131595 11.38814456 10.0625 14.6875 C10.05347656 15.68136719 10.04445313 16.67523438 10.03515625 17.69921875 C10.02355469 18.45847656 10.01195312 19.21773438 10 20 C9.34 20 8.68 20 8 20 C7.67 21.65 7.34 23.3 7 25 C5.68 24.67 4.36 24.34 3 24 C2.34 24.99 1.68 25.98 1 27 C-0.32 26.34 -1.64 25.68 -3 25 C-2.98259766 23.67935547 -2.98259766 23.67935547 -2.96484375 22.33203125 C-2.95582031 21.17058594 -2.94679688 20.00914062 -2.9375 18.8125 C-2.92589844 17.66394531 -2.91429687 16.51539063 -2.90234375 15.33203125 C-2.98830219 12.39912938 -3.38835635 9.85433705 -4 7 C-3.75 4.3125 -3.75 4.3125 -3 2 C-2.01 1.34 -1.02 0.68 0 0 Z " fill="#262425" transform="translate(341,245)"/>
<path d="M0 0 C2.475 0.495 2.475 0.495 5 1 C6.125 4.75 6.125 4.75 5 7 C4.01 7 3.02 7 2 7 C1.88398438 7.95326172 1.88398438 7.95326172 1.765625 8.92578125 C0.67613023 13.30043627 -1.2835402 17.14430054 -3.25 21.1875 C-3.65532959 22.03159424 -4.06065918 22.87568848 -4.47827148 23.74536133 C-7.26114755 29.52535207 -10.07829268 35.28872287 -13 41 C-14.32 41 -15.64 41 -17 41 C-15.05881711 34.49132796 -12.46871326 28.50318543 -9.51342773 22.40600586 C-7.71597471 18.66897562 -6.22340995 14.96238745 -5 11 C-4.34 11 -3.68 11 -3 11 C-3 10.34 -3 9.68 -3 9 C-4.65 9 -6.3 9 -8 9 C-8.625 6.625 -8.625 6.625 -9 4 C-8.34 3.34 -7.68 2.68 -7 2 C-3.46428571 2.53571429 -3.46428571 2.53571429 -2 4 C-1.34 2.68 -0.68 1.36 0 0 Z " fill="#5771A5" transform="translate(230,74)"/>
<path d="M0 0 C3.31636831 0.94196007 4.70489562 1.53439086 6.58203125 4.49609375 C7.19111328 5.95208984 7.19111328 5.95208984 7.8125 7.4375 C8.23144531 8.40558594 8.65039062 9.37367188 9.08203125 10.37109375 C10 13 10 13 10 16 C5.38 16 0.76 16 -4 16 C-6.31 11.38 -8.62 6.76 -11 2 C-6 4 -6 4 -4 6 C-3.67 5.01 -3.34 4.02 -3 3 C-2.34 3 -1.68 3 -1 3 C-0.67 2.01 -0.34 1.02 0 0 Z " fill="#3E3C3D" transform="translate(267,149)"/>
<path d="M0 0 C2.62697064 -0.22137393 5.00893964 -0.28162025 7.625 -0.1875 C8.33140625 -0.17396484 9.0378125 -0.16042969 9.765625 -0.14648438 C11.51074128 -0.1111104 13.25546608 -0.05730221 15 0 C13.7419157 7.37411789 9.85199188 11.6746147 4 16 C3.34 16 2.68 16 2 16 C2.66 14.35 3.32 12.7 4 11 C3.34 11 2.68 11 2 11 C2 10.34 2 9.68 2 9 C-2.455 8.01 -2.455 8.01 -7 7 C-6.21625 6.401875 -5.4325 5.80375 -4.625 5.1875 C-1.85425677 3.08914751 -1.85425677 3.08914751 0 0 Z " fill="#464646" transform="translate(187,269)"/>
<path d="M0 0 C1.36142765 2.2129026 2.0883188 3.42548107 1.6862793 6.04077148 C1.42242432 6.74790283 1.15856934 7.45503418 0.88671875 8.18359375 C0.5932959 8.97233887 0.29987305 9.76108398 -0.00244141 10.57373047 C-1.60390997 14.46883438 -3.34880785 18.27414986 -5.1875 22.0625 C-5.57607178 22.87307861 -5.96464355 23.68365723 -6.36499023 24.51879883 C-10.15319462 32.39062155 -14.05461309 40.20597954 -18 48 C-18.99 48 -19.98 48 -21 48 C-20.45025964 43.56280995 -19.3473545 40.31013543 -17.25 36.375 C-13.27426387 28.74079347 -9.67221712 20.93642 -6.0625 13.125 C-5.4645185 11.83251941 -4.86653673 10.54003894 -4.26855469 9.24755859 C-2.84403026 6.16580689 -1.42112323 3.08332128 0 0 Z " fill="#A7D8E8" transform="translate(174,167)"/>
<path d="M0 0 C1.4539304 0.03304387 2.90746075 0.09241162 4.359375 0.17578125 C5.10445312 0.19833984 5.84953125 0.22089844 6.6171875 0.24414062 C8.448784 0.30284564 10.27934153 0.39252368 12.109375 0.48828125 C11.449375 2.79828125 10.789375 5.10828125 10.109375 7.48828125 C10.769375 7.48828125 11.429375 7.48828125 12.109375 7.48828125 C12.109375 8.14828125 12.109375 8.80828125 12.109375 9.48828125 C3.694375 9.98328125 3.694375 9.98328125 -4.890625 10.48828125 C-4.890625 9.16828125 -4.890625 7.84828125 -4.890625 6.48828125 C-5.880625 6.15828125 -6.870625 5.82828125 -7.890625 5.48828125 C-5.55366688 1.58310123 -4.62048184 0.57987975 0 0 Z " fill="#252324" transform="translate(129.890625,256.51171875)"/>
<path d="M0 0 C-0.6719389 4.52031627 -2.34185744 8.48129837 -4.1875 12.625 C-4.49631104 13.32560547 -4.80512207 14.02621094 -5.12329102 14.74804688 C-7.77336835 20.67294491 -10.74983631 26.38066938 -14 32 C-14.99 32 -15.98 32 -17 32 C-16.43226794 27.54315819 -15.28935968 24.02425895 -13.34765625 19.98046875 C-12.81849609 18.87638672 -12.28933594 17.77230469 -11.74414062 16.63476562 C-11.18919922 15.49716797 -10.63425781 14.35957031 -10.0625 13.1875 C-9.51142578 12.03056641 -8.96035156 10.87363281 -8.39257812 9.68164062 C-3.71378175 0 -3.71378175 0 0 0 Z " fill="#516DA1" transform="translate(216,114)"/>
<path d="M0 0 C1.65 0.33 3.3 0.66 5 1 C4.01 1.495 4.01 1.495 3 2 C2.6486593 3.6629638 2.31889772 5.33051112 2 7 C1.21877715 8.86315114 0.37924329 10.70247644 -0.50390625 12.51953125 C-0.99697266 13.54111328 -1.49003906 14.56269531 -1.99804688 15.61523438 C-2.51431641 16.67033203 -3.03058594 17.72542969 -3.5625 18.8125 C-4.08263672 19.88693359 -4.60277344 20.96136719 -5.13867188 22.06835938 C-6.4207045 24.71475699 -7.70796111 27.3584771 -9 30 C-9.66 29.34 -10.32 28.68 -11 28 C-11.66 28.33 -12.32 28.66 -13 29 C-11.49048397 24.20990211 -9.64062618 19.65413119 -7.625 15.0625 C-7.33367187 14.38509766 -7.04234375 13.70769531 -6.7421875 13.00976562 C-4.76460729 8.48648457 -2.51479752 4.24856762 0 0 Z " fill="#57BBD7" transform="translate(221,82)"/>
<path d="M0 0 C1.65 0.33 3.3 0.66 5 1 C6.125 4.75 6.125 4.75 5 7 C4.01 7 3.02 7 2 7 C1.8453125 8.1446875 1.8453125 8.1446875 1.6875 9.3125 C0.95524057 12.17496868 0.27914649 13.19567569 -2 15 C-2.33 15 -2.66 15 -3 15 C-3 13.02 -3 11.04 -3 9 C-4.65 9 -6.3 9 -8 9 C-8.625 6.625 -8.625 6.625 -9 4 C-8.34 3.34 -7.68 2.68 -7 2 C-3.46428571 2.53571429 -3.46428571 2.53571429 -2 4 C-1.34 2.68 -0.68 1.36 0 0 Z " fill="#62707F" transform="translate(230,74)"/>
<path d="M0 0 C3 1 3 1 4.82421875 4.52734375 C5.45639586 5.99266374 6.07705247 7.46299521 6.6875 8.9375 C7.00783203 9.67935547 7.32816406 10.42121094 7.65820312 11.18554688 C10 16.69301373 10 16.69301373 10 19 C8.02 18.67 6.04 18.34 4 18 C4.33 15.69 4.66 13.38 5 11 C3.68 11.33 2.36 11.66 1 12 C1 12.99 1 13.98 1 15 C-0.32 14.67 -1.64 14.34 -3 14 C-3 8.84844098 -2.6035665 4.5128486 0 0 Z " fill="#241F20" transform="translate(236,80)"/>
<path d="M0 0 C1.67542976 0.28604898 3.34385343 0.61781233 5 1 C5.63787685 6.13291529 3.44233425 9.50128498 1 13.8125 C0.6184375 14.50537109 0.236875 15.19824219 -0.15625 15.91210938 C-1.09481823 17.61326428 -2.0461604 19.30736053 -3 21 C-4.32 21 -5.64 21 -7 21 C-5.87071445 17.32982197 -4.50954468 13.90366213 -2.875 10.4375 C-1.35368725 7.10857579 -0.65216823 4.7102056 -1 1 C-0.67 0.67 -0.34 0.34 0 0 Z " fill="#AAD8E8" transform="translate(214,78)"/>
<path d="M0 0 C0.33 0.66 0.66 1.32 1 2 C1.99 2 2.98 2 4 2 C2.55676531 6.73789165 0.62773267 10.98858151 -1.625 15.375 C-2.11226562 16.33599609 -2.11226562 16.33599609 -2.609375 17.31640625 C-3.40257407 18.87947501 -4.20077031 20.44000622 -5 22 C-5.33 21.01 -5.66 20.02 -6 19 C-6.66 19 -7.32 19 -8 19 C-6.00386732 12.2813095 -3.2708579 6.19265192 0 0 Z " fill="#5974AA" transform="translate(198,144)"/>
<path d="M0 0 C0.99 0.33 1.98 0.66 3 1 C3.33 2.98 3.66 4.96 4 7 C4.66 7 5.32 7 6 7 C5.67 8.32 5.34 9.64 5 11 C2.69 11 0.38 11 -2 11 C-2.33 12.32 -2.66 13.64 -3 15 C-3.5534764 12.92446352 -4 11.15634036 -4 9 C-4.66 9 -5.32 9 -6 9 C-5.52797514 4.75177626 -3.03344482 2.80010291 0 0 Z " fill="#222121" transform="translate(161,240)"/>
<path d="M0 0 C2.31 0.66 4.62 1.32 7 2 C7.33 3.65 7.66 5.3 8 7 C3.05 7 -1.9 7 -7 7 C-7.33 5.02 -7.66 3.04 -8 1 C-7.13375 1.5259375 -7.13375 1.5259375 -6.25 2.0625 C-3.64198224 3.14917407 -2.60582371 2.93065133 0 2 C0 1.34 0 0.68 0 0 Z " fill="#3C3C3C" transform="translate(194,247)"/>
<path d="M0 0 C0.99 0.99 1.98 1.98 3 3 C1.7023817 8.29860806 -0.15015702 12.34525646 -3 17 C-4.32 16.67 -5.64 16.34 -7 16 C-4.87594923 10.5443163 -2.72823857 5.18365329 0 0 Z " fill="#607EAE" transform="translate(173,197)"/>
<path d="M0 0 C1.65 0.33 3.3 0.66 5 1 C4.01 1.495 4.01 1.495 3 2 C2.87625 2.680625 2.7525 3.36125 2.625 4.0625 C1.77144637 8.07420206 -0.07964557 11.40045194 -2 15 C-3.32 14.67 -4.64 14.34 -6 14 C-4.7023817 8.70139194 -2.84984298 4.65474354 0 0 Z " fill="#61C3D9" transform="translate(221,82)"/>
<path d="M0 0 C5.61 0.33 11.22 0.66 17 1 C17 4.3 17 7.6 17 11 C10.07 10.505 10.07 10.505 3 10 C3 9.67 3 9.34 3 9 C6.3 8.67 9.6 8.34 13 8 C13.33 6.35 13.66 4.7 14 3 C7.07 2.505 7.07 2.505 0 2 C0 1.34 0 0.68 0 0 Z " fill="#5F5D5E" transform="translate(91,276)"/>
<path d="M0 0 C0.66 0.33 1.32 0.66 2 1 C1.31763207 4.04280395 0.34799107 6.81963333 -0.875 9.6875 C-1.20242187 10.47511719 -1.52984375 11.26273438 -1.8671875 12.07421875 C-3 14 -3 14 -6 15 C-6.5497272 9.36529617 -4.95047835 6.61012242 -2 2 C-1.34 2 -0.68 2 0 2 C0 1.34 0 0.68 0 0 Z " fill="#566DA2" transform="translate(180,186)"/>
<path d="M0 0 C0.66 0 1.32 0 2 0 C2.38281159 5.23175837 1.21854707 8.37802694 -1 13 C-1.99 13 -2.98 13 -4 13 C-4.25 6.375 -4.25 6.375 -2 3 C-1.34 3 -0.68 3 0 3 C0 2.01 0 1.02 0 0 Z " fill="#5BBDDC" transform="translate(176,178)"/>
<path d="M0 0 C0.33 0.99 0.66 1.98 1 3 C1.99 2.67 2.98 2.34 4 2 C2.41037341 6.03520597 0.71767682 10.01811282 -1 14 C-1.33 12.68 -1.66 11.36 -2 10 C-2.66 10 -3.32 10 -4 10 C-4.33 10.99 -4.66 11.98 -5 13 C-4.39254603 8.14036821 -2.27241033 4.2594482 0 0 Z " fill="#68C8DF" transform="translate(180,168)"/>
<path d="M0 0 C0.33 0 0.66 0 1 0 C0.53640488 4.72867022 -0.0799155 8.18142796 -3 12 C-3.99 12.33 -4.98 12.66 -6 13 C-5.36562401 7.5443665 -3.90304767 3.90304767 0 0 Z " fill="#47B1D1" transform="translate(210,109)"/>
<path d="M0 0 C0.99 0.99 1.98 1.98 3 3 C1.94124926 6.40312738 0.99097846 9.01353231 -1 12 C-1.99 12 -2.98 12 -4 12 C-3.45660208 7.43545749 -2.20536179 4.0271824 0 0 Z " fill="#5474A8" transform="translate(203,134)"/>
<path d="M0 0 C0.12375 0.639375 0.2475 1.27875 0.375 1.9375 C0.684375 2.9584375 0.684375 2.9584375 1 4 C1.66 4.33 2.32 4.66 3 5 C1.8125 7.9375 1.8125 7.9375 0 11 C-2.6875 11.875 -2.6875 11.875 -5 12 C-3.68938409 7.76570244 -2.05643741 3.92592596 0 0 Z " fill="#677DAE" transform="translate(183,176)"/>
<path d="M0 0 C3.42931954 3.7559214 4.56429083 8.23466745 6 13 C3.03 12.505 3.03 12.505 0 12 C0.33 9.69 0.66 7.38 1 5 C0.34 4.67 -0.32 4.34 -1 4 C-0.67 2.68 -0.34 1.36 0 0 Z " fill="#353334" transform="translate(240,86)"/>
<path d="M0 0 C1.67542976 0.28604898 3.34385343 0.61781233 5 1 C5 2.65 5 4.3 5 6 C3.34385343 6.38218767 1.67542976 6.71395102 0 7 C-1 6 -1 6 -1.125 3.5 C-1 1 -1 1 0 0 Z " fill="#9C9D6A" transform="translate(214,78)"/>
<path d="M0 0 C5.61 0 11.22 0 17 0 C17 3.3 17 6.6 17 10 C15.68 9.34 14.36 8.68 13 8 C13.33 6.35 13.66 4.7 14 3 C14.66 3 15.32 3 16 3 C16 2.34 16 1.68 16 1 C10.72 1 5.44 1 0 1 C0 0.67 0 0.34 0 0 Z " fill="#817F80" transform="translate(126,256)"/>
<path d="M0 0 C0.33 0.66 0.66 1.32 1 2 C1.99 2 2.98 2 4 2 C2.25 7.75 2.25 7.75 0 10 C0 9.01 0 8.02 0 7 C-0.66 7 -1.32 7 -2 7 C-2 7.99 -2 8.98 -2 10 C-2.66 10 -3.32 10 -4 10 C-2.8905928 6.51329166 -1.73662334 3.22515763 0 0 Z " fill="#738BBC" transform="translate(198,144)"/>
<path d="M0 0 C0.99 0.33 1.98 0.66 3 1 C3.33 2.65 3.66 4.3 4 6 C1 8 1 8 -1.1875 7.625 C-1.785625 7.41875 -2.38375 7.2125 -3 7 C-2.01 4.69 -1.02 2.38 0 0 Z " fill="#484744" transform="translate(236,80)"/>
<path d="M0 0 C0.99 0 1.98 0 3 0 C2.49287967 3.71888239 1.88391785 6.73454239 0 10 C-0.66 10 -1.32 10 -2 10 C-2.17942163 6.05272412 -2.09350689 3.4019487 0 0 Z " fill="#9BD4E5" transform="translate(167,182)"/>
<path d="M0 0 C1.65 0.33 3.3 0.66 5 1 C4.01 1.495 4.01 1.495 3 2 C2.65846063 3.66500443 2.32550502 5.33178677 2 7 C1.34 7.66 0.68 8.32 0 9 C-1.125 6.75 -1.125 6.75 -2 4 C-1.125 1.6875 -1.125 1.6875 0 0 Z " fill="#65B9CF" transform="translate(221,82)"/>
<path d="M0 0 C2.475 0.495 2.475 0.495 5 1 C6.125 4.75 6.125 4.75 5 7 C2.525 6.01 2.525 6.01 0 5 C0 3.35 0 1.7 0 0 Z " fill="#B2AF7B" transform="translate(230,74)"/>
<path d="M0 0 C0.66 0.33 1.32 0.66 2 1 C1.67 2.98 1.34 4.96 1 7 C0.01 7 -0.98 7 -2 7 C-2 7.99 -2 8.98 -2 10 C-2.66 10 -3.32 10 -4 10 C-2.25 2.25 -2.25 2.25 0 0 Z " fill="#4AADCF" transform="translate(197,135)"/>
<path d="M0 0 C0.66 0 1.32 0 2 0 C3.125 2.25 3.125 2.25 4 5 C3.125 7.3125 3.125 7.3125 2 9 C0.68 8.67 -0.64 8.34 -2 8 C-1.34 5.36 -0.68 2.72 0 0 Z " fill="#667EAE" transform="translate(225,85)"/>
<path d="M0 0 C-2.14331139 2.14331139 -3.14086424 2.514193 -6 3.25 C-7.051875 3.53617187 -7.051875 3.53617187 -8.125 3.828125 C-8.74375 3.88484375 -9.3625 3.9415625 -10 4 C-10.66 3.34 -11.32 2.68 -12 2 C-7.72424275 -1.23921004 -5.16347713 -1.11369115 0 0 Z " fill="#242324" transform="translate(186,277)"/>
<path d="M0 0 C0.66 0 1.32 0 2 0 C1.5317879 4.77576339 0.75668002 8.04476345 -2 12 C-2.87822019 9.54098346 -3.19223228 8.43938807 -2.125 6 C-1.75375 5.34 -1.3825 4.68 -1 4 C-0.63215869 2.6757713 -0.28797019 1.34386088 0 0 Z " fill="#504E4F" transform="translate(349,265)"/>
<path d="M0 0 C0.33 1.32 0.66 2.64 1 4 C0.01 4.33 -0.98 4.66 -2 5 C-2.66 5.66 -3.32 6.32 -4 7 C-6.125 7.625 -6.125 7.625 -8 8 C-6.48291727 4.46014029 -4.24676932 0 0 0 Z " fill="#696869" transform="translate(310,240)"/>
<path d="M0 0 C0.33 0 0.66 0 1 0 C1.33 2.64 1.66 5.28 2 8 C0.02 8.99 0.02 8.99 -2 10 C-3 8 -3 8 -2.44140625 6.0546875 C-2.15136719 5.33539063 -1.86132812 4.61609375 -1.5625 3.875 C-1.27503906 3.15054688 -0.98757812 2.42609375 -0.69140625 1.6796875 C-0.46324219 1.12539062 -0.23507813 0.57109375 0 0 Z " fill="#6CC4D5" transform="translate(162,206)"/>
<path d="M0 0 C0.99 0 1.98 0 3 0 C3 1.98 3 3.96 3 6 C1.35 6 -0.3 6 -2 6 C-1.125 1.125 -1.125 1.125 0 0 Z " fill="#B4B485" transform="translate(223,76)"/>
<path d="M0 0 C0.66 0 1.32 0 2 0 C1.34 2.64 0.68 5.28 0 8 C-0.99 8 -1.98 8 -3 8 C-2.25 2.25 -2.25 2.25 0 0 Z " fill="#A2CEDC" transform="translate(156,207)"/>
<path d="M0 0 C1.32 0 2.64 0 4 0 C3.75 2.375 3.75 2.375 3 5 C0.9375 6.3125 0.9375 6.3125 -1 7 C-0.67 4.69 -0.34 2.38 0 0 Z " fill="#4BB1CD" transform="translate(182,164)"/>
<path d="M0 0 C2.64465038 3.1254959 3.84414715 6.08788267 5 10 C3.125 9.3125 3.125 9.3125 1 8 C-0.125 5.5 -0.125 5.5 -1 3 C-1.66 2.34 -2.32 1.68 -3 1 C-2.01 0.67 -1.02 0.34 0 0 Z " fill="#565455" transform="translate(243,191)"/>
<path d="M0 0 C0.33 0.66 0.66 1.32 1 2 C0.67 2.66 0.34 3.32 0 4 C0.66 4 1.32 4 2 4 C2 3.01 2 2.02 2 1 C2.66 1.33 3.32 1.66 4 2 C3.01 4.64 2.02 7.28 1 10 C-0.625 8.375 -0.625 8.375 -2 6 C-1.1875 2.75 -1.1875 2.75 0 0 Z " fill="#6DCCE2" transform="translate(193,141)"/>
<path d="M0 0 C2.0625 0.4375 2.0625 0.4375 4 1 C3.835 1.5775 3.67 2.155 3.5 2.75 C2.85537969 5.26664369 2.85537969 5.26664369 3 9 C0.86928411 6.40608501 -0.53582673 4.36525621 -1 1 C-0.67 0.67 -0.34 0.34 0 0 Z " fill="#3C3A3B" transform="translate(211,155)"/>
<path d="M0 0 C2.64465038 3.1254959 3.84414715 6.08788267 5 10 C3.68 10 2.36 10 1 10 C1 7.69 1 5.38 1 3 C0.34 3 -0.32 3 -1 3 C-0.67 2.01 -0.34 1.02 0 0 Z " fill="#524F50" transform="translate(250,107)"/>
<path d="M0 0 C-0.33 2.31 -0.66 4.62 -1 7 C-1.99 7 -2.98 7 -4 7 C-4.1875 4.625 -4.1875 4.625 -4 2 C-1 0 -1 0 0 0 Z " fill="#4CB7D0" transform="translate(176,184)"/>
<path d="M0 0 C0.33 0 0.66 0 1 0 C0.67 2.31 0.34 4.62 0 7 C-0.99 7.33 -1.98 7.66 -3 8 C-2.25 2.25 -2.25 2.25 0 0 Z " fill="#3C6096" transform="translate(187,172)"/>
<path d="M0 0 C1.32 0.33 2.64 0.66 4 1 C3.34 2.98 2.68 4.96 2 7 C0.68 7 -0.64 7 -2 7 C-1.34 4.69 -0.68 2.38 0 0 Z " fill="#697FB4" transform="translate(215,108)"/>
<path d="M0 0 C0.99 0.66 1.98 1.32 3 2 C-0.75 7.75 -0.75 7.75 -3 10 C-2.49287967 6.28111761 -1.88391785 3.26545761 0 0 Z " fill="#434041" transform="translate(232,89)"/>
<path d="M0 0 C1.32 0 2.64 0 4 0 C4.33 2.31 4.66 4.62 5 7 C4.01 6.67 3.02 6.34 2 6 C0.8125 2.9375 0.8125 2.9375 0 0 Z " fill="#4F4D4E" transform="translate(275,280)"/>
<path d="M0 0 C1.5625 1.8125 1.5625 1.8125 3 4 C2.67 4.99 2.34 5.98 2 7 C1.01 7 0.02 7 -1 7 C-1.66 7.66 -2.32 8.32 -3 9 C-2.30058404 5.85262818 -1.23921302 2.97411124 0 0 Z " fill="#778DC0" transform="translate(187,167)"/>
<path d="M0 0 C0.66 0 1.32 0 2 0 C2 1.65 2 3.3 2 5 C1.01 5 0.02 5 -1 5 C-1.33 5.99 -1.66 6.98 -2 8 C-2.125 5.125 -2.125 5.125 -2 2 C-1.34 1.34 -0.68 0.68 0 0 Z " fill="#46609B" transform="translate(218,104)"/>
<path d="M0 0 C1.32 0 2.64 0 4 0 C3.67 1.32 3.34 2.64 3 4 C2.34 4 1.68 4 1 4 C1 4.66 1 5.32 1 6 C0.34 6 -0.32 6 -1 6 C-0.67 4.02 -0.34 2.04 0 0 Z " fill="#A2D1DB" transform="translate(213,85)"/>
<path d="M0 0 C0.99 0.33 1.98 0.66 3 1 C3 1.99 3 2.98 3 4 C0.5 6.1875 0.5 6.1875 -2 8 C-1.125 2.25 -1.125 2.25 0 0 Z " fill="#4E4E4E" transform="translate(154,248)"/>
<path d="M0 0 C0.33 1.32 0.66 2.64 1 4 C1.66 4 2.32 4 3 4 C2.34 5.32 1.68 6.64 1 8 C0.01 7.67 -0.98 7.34 -2 7 C-1.125 2.25 -1.125 2.25 0 0 Z " fill="#74D0E4" transform="translate(171,187)"/>
<path d="M0 0 C0.66 0.33 1.32 0.66 2 1 C1.67 2.32 1.34 3.64 1 5 C-0.32 5.33 -1.64 5.66 -3 6 C-2.67 4.68 -2.34 3.36 -2 2 C-1.34 2 -0.68 2 0 2 C0 1.34 0 0.68 0 0 Z " fill="#50659C" transform="translate(180,186)"/>
<path d="M0 0 C0.66 0 1.32 0 2 0 C2.1875 2.875 2.1875 2.875 2 6 C1.01 6.66 0.02 7.32 -1 8 C-1.125 2.25 -1.125 2.25 0 0 Z " fill="#416293" transform="translate(205,130)"/>
<path d="M0 0 C2.15377564 2.62198774 3.40072174 4.64404172 4 8 C3.01 8 2.02 8 1 8 C1 7.01 1 6.02 1 5 C0.34 4.67 -0.32 4.34 -1 4 C-0.67 2.68 -0.34 1.36 0 0 Z " fill="#484747" transform="translate(240,86)"/>
<path d="M0 0 C0.66 0.33 1.32 0.66 2 1 C-0.38957269 4.24299151 -2.2047869 6.50902342 -6 8 C-4.55746343 4.63408134 -2.66735273 2.48952921 0 0 Z " fill="#5F5F5F" transform="translate(161,240)"/>
<path d="M0 0 C-3.85756507 2.15305957 -6.55129785 3.39253254 -11 3 C-7.18178484 -0.02823961 -4.81391924 -1.49397494 0 0 Z " fill="#696969" transform="translate(321,237)"/>
<path d="M0 0 C0.66 1.32 1.32 2.64 2 4 C0.68 5.32 -0.64 6.64 -2 8 C-2.33 7.34 -2.66 6.68 -3 6 C-2.06553465 3.96855359 -1.06775224 1.96466413 0 0 Z " fill="#4B4245" transform="translate(212,131)"/>
<path d="M0 0 C0.33 0.99 0.66 1.98 1 3 C1.66 3 2.32 3 3 3 C2.34 4.32 1.68 5.64 1 7 C0.01 6.67 -0.98 6.34 -2 6 C-1.34 4.02 -0.68 2.04 0 0 Z " fill="#67C9E2" transform="translate(198,130)"/>
</svg>
